<svg xmlns="http://www.w3.org/2000/svg" version="1.1" viewBox="-5.0 -10.0 110.0 135.0">
  <g>
    <rect x="-5" y="-10" width="110" height="135" fill="white" rx="10" ry="10"/>
    <path d="m86.312 11.312h-16.953c-0.25-0.42188-0.65625-0.70312-1.1719-0.70312l-10.625-0.0625v-2.7656c-0.015625-4.2969-3.5-7.7812-7.7969-7.7812s-7.7812 3.4844-7.7812 7.7812v2.7656h-11.172c-0.53125 0-0.98438 0.3125-1.2188 0.76562h-15.906c-0.76562 0-1.3906 0.625-1.3906 1.375v85.938c0 0.75 0.625 1.375 1.3906 1.375h72.625c0.75 0 1.3906-0.625 1.3906-1.375v-85.938c0-0.76562-0.64062-1.375-1.3906-1.375zm-55.5 14.062h37.359c0.75 0 1.375-0.625 1.375-1.3906v-3.3594h8.125v69.812h-55.281v-69.812h7.0469v3.3438c0 0.78125 0.625 1.4062 1.375 1.4062zm54.125 71.875h-69.875v-83.188h14.375v3.8125h-8.4219c-0.75 0-1.375 0.625-1.375 1.3906v72.562c0 0.75 0.625 1.375 1.375 1.375h58.031c0.75 0 1.375-0.625 1.375-1.375v-72.562c0-0.76562-0.625-1.3906-1.375-1.3906h-9.4844v-3.8125h15.391v83.188z" fill="black"/>
    <path d="m65.281 29.859h-30.562c-0.75 0-1.375 0.625-1.375 1.3906v29.625c0 0.75 0.625 1.375 1.375 1.375h30.562c0.75 0 1.375-0.625 1.375-1.375v-29.625c0-0.76562-0.625-1.3906-1.375-1.3906zm-16.656 29.625h-12.531v-12.047h2.6562v2.8125c0 0.76562 0.625 1.3906 1.3906 1.3906h4.4375c0.76562 0 1.3906-0.625 1.3906-1.3906v-2.8125h2.6562zm0-14.812h-12.531v-12.047h2.6562v2.8125c0 0.76562 0.625 1.3906 1.3906 1.3906h4.4375c0.76562 0 1.3906-0.625 1.3906-1.3906v-2.8125h2.6562zm15.266 14.812h-12.516v-12.047h2.6562v2.8125c0 0.76562 0.625 1.3906 1.375 1.3906h4.4531c0.75 0 1.375-0.625 1.375-1.3906v-2.8125h2.6562zm0-14.812h-12.516v-12.047h2.6562v2.8125c0 0.76562 0.625 1.3906 1.375 1.3906h4.4531c0.75 0 1.375-0.625 1.375-1.3906v-2.8125h2.6562z" fill="black"/>
    <path d="m26.891 70.078c0 0.76562 0.625 1.375 1.375 1.375h45.172c0.76562 0 1.375-0.625 1.375-1.375 0-0.76562-0.625-1.375-1.375-1.375h-45.156c-0.76562 0-1.3906 0.625-1.3906 1.375z" fill="black"/>
    <path d="m73.438 75.828h-45.156c-0.76562 0-1.375 0.625-1.375 1.375s0.625 1.375 1.375 1.375h45.156c0.76562 0 1.375-0.625 1.375-1.375s-0.625-1.375-1.375-1.375z" fill="black"/>
    <path d="m57.641 82.953h-29.359c-0.76562 0-1.375 0.625-1.375 1.375s0.625 1.375 1.375 1.375h29.359c0.76562 0 1.375-0.625 1.375-1.375s-0.625-1.375-1.375-1.375z" fill="black"/>
  </g>
  <text x="0.0" y="117.5" font-size="5.0" font-weight="bold" font-family="Arbeit Regular, Helvetica, Arial-Unicode, Arial, Sans-serif" fill="#000000">Created by Rank Sol</text><text x="0.0" y="122.5" font-size="5.0" font-weight="bold" font-family="Arbeit Regular, Helvetica, Arial-Unicode, Arial, Sans-serif" fill="#000000">from Noun Project</text>
</svg>